<svg id="Layer_1" data-name="Layer 1" xmlns="http://www.w3.org/2000/svg" viewBox="0 0 16 16"><defs><style>.cls-1{font-size:4.6px;}.cls-1,.cls-2,.cls-3{fill:#06727f;}.cls-1,.cls-2{font-family:CalifornianFB-Reg, Californian FB;}.cls-2{font-size:2.3px;}</style></defs><text class="cls-1" transform="translate(3.36 6.3)">TOY</text><text class="cls-2" transform="translate(7.23 7.17) rotate(90)">POINT</text><path class="cls-3" d="M11.07,7.7s-.08,0-.22,0a1.21,1.21,0,0,0-.53.36,1.54,1.54,0,0,0-.39,1,1.34,1.34,0,0,0,.65,1.2,2,2,0,0,0,1.64.16,1.51,1.51,0,0,0,1-1.57,1.67,1.67,0,0,0-1.38-1.54,2,2,0,0,0-2.07.85l.29.17a1.72,1.72,0,0,1,1.72-.69,1.35,1.35,0,0,1,1.13,1.23,1.21,1.21,0,0,1-.8,1.28,1.72,1.72,0,0,1-1.43-.1,1.1,1.1,0,0,1-.58-1,1.46,1.46,0,0,1,.3-.87A2,2,0,0,1,11.07,7.7Z"/><path class="cls-3" d="M11.59,8.88c0-.08-.49.17-.25-.19a.25.25,0,0,1,.45.07q.06.13-.09.21a.3.3,0,0,1-.31,0l-.26.22a.6.6,0,0,0,.71.11.47.47,0,0,0,.24-.64.57.57,0,0,0-.5-.33.5.5,0,0,0-.44.27.45.45,0,0,0,0,.45c0,.17.2,0,.28,0S11.6,8.9,11.59,8.88Z"/><path class="cls-3" d="M9,7.8a11.3,11.3,0,0,0,2-.36L13.17,7a6.66,6.66,0,0,0,1.28-.39,2.48,2.48,0,0,0,1.18-.91l-.28-.18a3.73,3.73,0,0,1-2.26,1.18l-2.16.55A12.69,12.69,0,0,0,9,7.8Z"/><path class="cls-3" d="M4.93,7.89a2,2,0,0,1,.65.5,1.46,1.46,0,0,1,.3.87,1.11,1.11,0,0,1-.58,1,1.72,1.72,0,0,1-1.43.1,1.21,1.21,0,0,1-.8-1.28A1.35,1.35,0,0,1,4.2,7.83a1.72,1.72,0,0,1,1.72.69l.29-.17A2,2,0,0,0,4.14,7.5,1.67,1.67,0,0,0,2.76,9a1.51,1.51,0,0,0,1,1.57,2,2,0,0,0,1.64-.16,1.34,1.34,0,0,0,.65-1.2,1.54,1.54,0,0,0-.39-.95,1.21,1.21,0,0,0-.53-.36C5,7.89,4.93,7.88,4.93,7.89Z"/><path class="cls-3" d="M4.41,9.07s0,.07.18.14.23.17.28,0a.45.45,0,0,0,0-.45.5.5,0,0,0-.44-.27.57.57,0,0,0-.5.33.47.47,0,0,0,.24.64.6.6,0,0,0,.71-.11l-.26-.23a.28.28,0,0,1-.31,0Q4.15,9.08,4.21,9a.25.25,0,0,1,.45-.07C4.9,9.24,4.39,9,4.41,9.07Z"/><path class="cls-3" d="M7,8a12.69,12.69,0,0,0-2-.59L2.91,6.85A3.73,3.73,0,0,1,.65,5.67l-.28.18a2.48,2.48,0,0,0,1.18.91,6.66,6.66,0,0,0,1.28.39L5,7.63A11.3,11.3,0,0,0,7,8Z"/></svg>